{"title":"28 Hotel Rooms 2012 English Best DVDRip XviD Sample Included ~ r","uid":8141484,"size":720622886,"categoryP":"video","categoryS":"movies","magnet":"?xt=urn:btih:beae496e29f0b104af5b1379fb29a37becf22216&amp;dn=28+Hotel+Rooms+2012+English+Best+DVDRip+XviD+Sample+Included+%7E+r&amp;tr=udp%3A%2F%2Ftracker.openbittorrent.com%3A80&amp;tr=udp%3A%2F%2Fopen.demonii.com%3A1337&amp;tr=udp%3A%2F%2Ftracker.coppersurfer.tk%3A6969&amp;tr=udp%3A%2F%2Fexodus.desync.com%3A6969","seeders":5,"leechers":1,"uploader":"basicssom","files":2,"time":1360821824,"description":"28 Hotel Rooms 2012 English Movies Best DVDRip XviD Sample Included ~ rDX\n\nScreen Shots :\n &lt;a href=&quot;\nhttp://myimghosting.serveftp.com/28HotelRooms.html&quot; rel=&quot;nofollow&quot; target=&quot;_NEW&quot;&gt;\nhttp://myimghosting.serveftp.com/28HotelRooms.html&lt;/a&gt;\n &lt;a href=&quot;\nhttp://myimghost.cwahi.net/28HotelRooms.html&quot; rel=&quot;nofollow&quot; target=&quot;_NEW&quot;&gt;\nhttp://myimghost.cwahi.net/28HotelRooms.html&lt;/a&gt;\n\n\nFormat                                   : AVI\nFormat/Info                              : Audio Video Interleave\nFile size                                : 659 MiB\nDuration                                 : 1h 19mn\nOverall bit rate                         : 1 152 Kbps\nWriting library                          : MPlayer\n\nVideo\nID                                       : 0\nFormat                                   : MPEG-4 Visual\nFormat profile                           : Advanced Simple@L5\nFormat settings, BVOP                    : No\nFormat settings, QPel                    : No\nFormat settings, GMC                     : No warppoints\nFormat settings, Matrix                  : Default (MPEG)\nCodec ID                                 : XVID\nCodec ID/Hint                            : XviD\nDuration                                 : 1h 19mn\nBit rate                                 : 970 Kbps\nWidth                                    : 640 pixels\nHeight                                   : 336 pixels\nDisplay aspect ratio                     : 1.905\nFrame rate                               : 23.976 fps\nColor space                              : YUV\nChroma subsampling                       : 4:2:0\nBit depth                                : 8 bits\nScan type                                : Progressive\nCompression mode                         : Lossy\nBits/(Pixel*Frame)                       : 0.188\nStream size                              : 555 MiB (84%)\nWriting library                          : XviD 1.2.1 (UTC 2008-12-04)\n\nAudio\nID                                       : 1\nFormat                                   : MPEG Audio\nFormat version                           : Version 1\nFormat profile                           : Layer 3\nMode                                     : Joint stereo\nMode extension                           : MS Stereo\nCodec ID                                 : 55\nCodec ID/Hint                            : MP3\nDuration                                 : 1h 19mn\nBit rate mode                            : Constant\nBit rate                                 : 32.0 Kbps\nChannel(s)                               : 2 channels\nSampling rate                            : 48.0 KHz\nCompression mode                         : Lossy\nStream size                              : 96.8 MiB (15%)\nAlignment                                : Aligned on interleaves\nInterleave, duration                     : 24 ms (0.58 video frame)\nInterleave, preload duration             : 95 ms\nWriting library                          : LAME3.98.2","torrent":{"xt":"urn:btih:beae496e29f0b104af5b1379fb29a37becf22216","amp;dn":"28+Hotel+Rooms+2012+English+Best+DVDRip+XviD+Sample+Included+%7E+r","amp;tr":["udp%3A%2F%2Ftracker.openbittorrent.com%3A80","udp%3A%2F%2Fopen.demonii.com%3A1337","udp%3A%2F%2Ftracker.coppersurfer.tk%3A6969","udp%3A%2F%2Fexodus.desync.com%3A6969"],"infoHash":"beae496e29f0b104af5b1379fb29a37becf22216","infoHashBuffer":{"type":"Buffer","data":[190,174,73,110,41,240,177,4,175,91,19,121,251,41,163,123,236,242,34,22]},"announce":[],"urlList":[]}}